<?xml version="1.0" encoding="UTF-8"?>
<svg id="Layer_1" xmlns="http://www.w3.org/2000/svg" version="1.1" viewBox="0 0 512 512">
  <!-- Generator: Adobe Illustrator 29.0.1, SVG Export Plug-In . SVG Version: 2.1.0 Build 192)  -->
  <defs>
    <style>
      .st0 {
        fill: #f39200;
      }

      .st1 {
        fill: #2d2d2d;
      }
    </style>
  </defs>
  <g>
    <path class="st0" d="M148.2,214.7h90c.9-2.9,1.8-5.7,2.9-8.5,5.8-15.2,13.8-28.5,24.2-40.1,10.4-11.5,22.8-20.6,37.2-27.1,14.4-6.5,30.1-9.8,47-9.8s38.7,4,55.1,12.1c16.3,8.1,32.4,19.2,48.1,33.4l56.5-65.2c-9.2-9.2-19.2-17.7-30-25.4-10.8-7.7-22.5-14.2-35.2-19.6-12.7-5.4-26.8-9.6-42.4-12.7-15.6-3.1-32.8-4.6-51.6-4.6-31.1,0-59.6,5.5-85.3,16.4-25.8,11-47.9,25.9-66.3,45-18.5,19-32.9,41.1-43.2,66.3-4.6,11.2-8.2,22.7-10.7,34.6,1.3,1.7,2.6,3.4,3.8,5.1Z"/>
    <path class="st0" d="M455.5,335.6c-15.8,14.6-31.6,26.1-47.6,34.6-16,8.5-35.5,12.7-58.5,12.7s-33.2-3.4-47.6-10.1c-14.4-6.7-26.7-15.9-36.9-27.4-7.5-8.5-13.9-18.1-19-28.8h-2.4c0,0,0,0,0,0h-4.1c0,.1-15.4.6-15.4.6-4.8,6.8-12.3,11-20.4,11s-12-2.4-16.7-6.7c-1.1-1-2.1-2.1-3-3.3l-35,.3c-.2.3-.4.5-.6.8,1.9,6.5,4.2,12.9,6.8,19.2,10.4,25.4,24.8,47.4,43.2,66,18.5,18.7,40.4,33.4,65.7,44.1,25.4,10.8,52.9,16.1,82.5,16.1s37.3-1.6,53-4.9c15.8-3.3,30.3-8.1,43.5-14.4,13.3-6.3,25.5-13.9,36.6-22.8,11.1-8.8,21.9-18.8,32.3-30l-56.5-57.1Z"/>
  </g>
  <path class="st1" d="M140.7,304.1l51.8-.4c.8,2.9,2.3,5.5,4.2,7.3,1.9,1.8,4.3,2.9,6.9,2.9,5.3,0,9.8-4.6,11.2-10.8h0l24.3-.7c-.4-1.2-.5-2.6-.5-4,0-7.2,5.3-13.1,11.9-13.1s11.9,5.9,11.9,13.1-.1,2.2-.4,3.3l19-.5c-.3-1.1-.5-2.3-.5-3.6,0-7.2,5.6-13.1,12.5-13.1s12.5,5.9,12.5,13.1-.1,2-.3,2.9l20.7-.6c-.1-.7-.2-1.5-.2-2.3,0-7.2,5.3-13.1,11.9-13.1s11.9,5.9,11.9,13.1,0,1.1,0,1.6l14.8-.4c.7,0,1.4-.3,1.9-.9l25.3-29.3c.8-.9.8-2.2.1-3.2l-25.4-35.3c-.5-.7-1.3-1.1-2.1-1.1h-224c-12.9-23.2-37.3-38.8-65.2-38.8C33.6,190.2,0,224.7,0,267.1s33.6,76.9,75,76.9,52.9-16.1,65.7-39.8ZM348.1,240.8l8,12.5h-155.7v-12.5h147.7ZM60.2,267.1c0-10.9,8.8-19.8,19.8-19.8s19.8,8.9,19.8,19.8-8.9,19.8-19.8,19.8-19.8-8.9-19.8-19.8Z"/>
</svg>